<?xml version="1.0" encoding="UTF-8"?>
<svg id="Layer_1" data-name="Layer 1" xmlns="http://www.w3.org/2000/svg" version="1.1" viewBox="0 0 1080 1080">
  <defs>
    <style>
      .cls-1 {
        fill: #a67f2d;
        stroke-width: 0px;
      }
    </style>
  </defs>
  <path class="cls-1" d="M489.47,686.13c-4.78,7.88-9.56,15.77-14.35,23.65-15.47,25.44-30.94,50.89-46.41,76.33-7.34,12.07-14.68,24.14-22.02,36.21-.26.43-.52.87-.81,1.29-.3.45-.72.68-1.28.66-.59-.02-1.18,0-1.78,0-60.02,0-120.03,0-180.05-.02-.86,0-2.07.55-2.53-.38-.34-.7.6-1.47,1.03-2.18,13-21.4,26.01-42.8,39.01-64.19,15.95-26.24,31.91-52.47,47.87-78.71,17.8-29.27,35.6-58.55,53.4-87.82,11.29-18.58,22.59-37.15,33.88-55.73.39-.64.81-1.25,1.3-2,.71.44.96,1.07,1.29,1.61,5.19,8.53,10.37,17.06,15.56,25.58,17.62,28.98,35.25,57.97,52.87,86.95,5.85,9.61,11.7,19.22,17.56,28.83.31.5.66.98.99,1.46.28,1.18,1.12,2.06,1.66,3.1.93,1.79,2.16,3.41,2.8,5.35Z"/>
  <path class="cls-1" d="M768.5,552.8c8.32,13.65,16.64,27.29,24.95,40.94,16.4,26.94,32.91,53.81,49.12,80.86,8.65,14.43,17.39,28.81,26.11,43.2,18.33,30.23,36.73,60.42,55.1,90.63,2.72,4.48,5.45,8.96,8.17,13.44.22.36.47.71.66,1.08.4.78.23,1.37-.72,1.33-.59-.03-1.18,0-1.78,0-61.53,0-123.06,0-184.59,0-3.01,0-2.36.45-3.97-2.2-12.45-20.44-24.88-40.9-37.32-61.35-3.21-5.28-6.42-10.55-9.62-15.83-.31-.51-.58-1.03-.87-1.54.42-.26.81-.59,1.27-.76,2.83-1.02,5.43-2.44,7.77-4.35.38-.31.84-.53,1.26-.8.31.5.64,1,.94,1.5,14.41,23.7,28.82,47.39,43.24,71.09.61,1.01,1.23,2.01,1.86,3.03.92-.53.94-1.47,1.23-2.22,6.05-15.7,12.07-31.41,18.08-47.12,1.21-3.16,2.38-6.33,3.56-9.49.58-.33.66-.93.87-1.48,5.04-13.14,10.1-26.28,15.12-39.43,1.02-2.67,2.23-5.27,2.9-8.06.11-.32.2-.65.32-.96,7.34-18.99,14.61-38.01,21.5-57.17.61-1.69.47-2.9-.46-4.42-13.63-22.28-27.2-44.61-40.77-66.92-3.91-6.43-7.8-12.87-11.69-19.31.21-.13.41-.31.65-.39,2.17-.74,4.25-1.65,6.15-2.95.27-.18.63-.23.95-.33Z"/>
  <path class="cls-1" d="M515.31,449.98c-3.97-6.5-7.93-12.99-11.9-19.49-6.87-11.26-13.74-22.53-20.6-33.8-.31-.51-.56-1.05-.92-1.52-.59-.78-.54-1.44,0-2.28,2.05-3.21,4.04-6.45,6.02-9.7,12.18-20.02,24.35-40.04,36.53-60.06,15.3-25.15,30.6-50.3,45.9-75.46,1.71-2.82,3.42-5.64,5.15-8.45.29-.48.43-1.11,1.17-1.29.64.41.91,1.14,1.29,1.77,10.56,17.34,21.11,34.69,31.66,52.04,13.27,21.83,26.53,43.67,39.81,65.49,8.01,13.14,16.06,26.26,24.09,39.39.31.5.56,1.04.84,1.56-.65.58-1.51.71-2.28,1.04-6.63,2.83-10.96,7.63-12.71,14.71-.49,2-.4,4.02-.55,6.03-2.17-.36-4.33-.74-6.5-1.06-2-.3-4.03-.48-6.03-.8-7.77-1.24-15.53-2.47-23.29-3.78-5.17-.87-10.38-1.47-15.48-2.76-.81-.2-1.63-.4-2.48-.17-.14.88.49,1.44.85,2.08,4.45,7.87,8.92,15.73,13.4,23.58,1.21,2.12.79,2.14,3.52,1.43,12.74-3.33,25.49-6.64,38.24-9.96,1.28,1.64,2.57,3.28,3.84,4.92.09.12.09.32.13.48-.49.11-.99.22-1.48.34-10.53,2.75-21.06,5.5-31.59,8.24-2.45.64-4.9,1.27-7.35,1.92-.69.18-.82.48-.5,1.09.31.6.66,1.18.99,1.77,9.76,17.17,19.53,34.35,29.3,51.52-.39.3-.76.65-1.19.88-1.32.71-2.59,1.48-3.71,2.5-.3.27-.7.42-1.06.63-10.19-17.9-20.37-35.81-30.56-53.71-.33-.59-.7-1.16-1-1.76-.28-.56-.73-.64-1.27-.52-.41.09-.83.18-1.23.28-5.88,1.53-11.75,3.07-17.63,4.6-13.71,3.57-27.43,7.15-41.14,10.72-.83-1.89-1.12-3.92-1.52-5.92.23-.1.46-.24.7-.3,17.08-4.45,34.16-8.9,51.24-13.35,2.12-.55,4.25-1.09,6.38-1.64.54-.14.68-.44.44-.93-.22-.45-.47-.9-.72-1.34-3.81-6.68-7.61-13.37-11.42-20.05-1.55-2.72-3.11-5.43-4.63-8.16-.44-.8-.97-1.26-1.94-1.4-3.18-.45-6.34-1.02-9.51-1.51-7.59-1.18-15.19-2.31-22.78-3.53-9.35-1.49-18.7-3.06-28.04-4.58-12.6-2.05-25.21-4.1-37.82-6.14-.21-.03-.44.08-.75.14.2.92.75,1.58,1.18,2.29,9.05,14.89,18.1,29.77,27.15,44.66.53.87,1.01,1.76,1.51,2.64-.47.53-1.14.72-1.74,1-2.49,1.13-4.68,2.69-6.67,4.55-.43.4-.9.76-1.35,1.14Z"/>
  <path class="cls-1" d="M704.06,737.45c-.42.26-.88.48-1.26.8-2.34,1.9-4.94,3.32-7.77,4.35-.45.16-.84.5-1.27.76-.92.1-1.85.15-2.76.32-12.92,2.39-26.32-5.57-29.78-19.2-2.07-8.18-.45-15.73,4.64-22.5.51-.67.99-1.36,1.49-2.04.29-.16.63-.26.85-.48,2.42-2.33,5.18-4.15,8.23-5.52.3-.13.55-.36.82-.55.65-.17,1.3-.34,1.94-.5,3.61-.91,7.23-1.34,10.97-.75,2.17.35,4.22,1.05,6.33,1.61,1.27.92,2.61,1.69,4.14,2.08.58.49,1.15.98,1.74,1.45,5.78,4.58,9.17,10.49,10.04,17.85.2,1.69.11,3.38.27,5.06-.64,1.08-.44,2.34-.76,3.49-1,4.72-3.25,8.79-6.53,12.3-.46.49-.9.99-1.35,1.49Z"/>
  <path class="cls-1" d="M554.08,456.49c.4,2,.69,4.03,1.53,5.92-.07.24-.21.49-.19.72.19,2.95-.17,5.84-.82,8.7-.9,1.65-1.76,3.31-2.34,5.11-1.25,1.61-2.49,3.22-3.74,4.83-.67.17-1.2.58-1.72,1-2.1,1.71-4.42,3.01-7.02,3.79-.57.17-1.1.41-1.48.89-1.19-.24-2.35.1-3.52.22-10.63,1.09-21.15-5.66-24.09-16.73-1.8-6.8-.68-13.22,3.35-19.07.43-.62.84-1.26,1.27-1.89.45-.38.92-.74,1.35-1.14,1.99-1.85,4.18-3.42,6.67-4.55.61-.28,1.28-.47,1.74-1,.82-.17,1.65-.33,2.47-.51,11.11-2.48,21.05,3.22,25.42,11.74.35.67.75,1.32,1.12,1.98Z"/>
  <path class="cls-1" d="M538.3,487.44c.38-.48.91-.72,1.48-.89,2.6-.78,4.92-2.08,7.02-3.79.52-.42,1.06-.83,1.72-1,.4.65.82,1.28,1.21,1.93,10.49,17.24,20.98,34.48,31.46,51.72,9.08,14.93,18.16,29.87,27.24,44.81-.25.74-.94.9-1.55,1.14-2.67,1.05-5.09,2.47-7.1,4.56-.34.35-.8.58-1.21.87-2.78-4.53-5.58-9.05-8.35-13.59-6.98-11.47-14.07-22.87-20.89-34.43-9.9-16.79-20.25-33.31-30.3-50.01-.26-.43-.49-.88-.74-1.33Z"/>
  <path class="cls-1" d="M658.8,419.95c.15-2.01.06-4.03.55-6.03,1.75-7.08,6.08-11.88,12.71-14.71.77-.33,1.63-.46,2.28-1.04.76-.07,1.52-.09,2.27-.21,10.65-1.77,22.03,5.86,23.58,17.81.7,5.36-.52,10.21-3.51,14.66-.47.7-.91,1.41-1.37,2.11-.56.19-.99.56-1.4.98-1.21,1.26-2.65,2.23-4.15,3.11-.49.29-.95.65-1.42.98-.24.06-.5.08-.73.18-4.07,1.74-8.28,1.89-12.58,1.18-1.46-.46-2.92-.93-4.38-1.39-1.68-1.1-3.43-2.09-4.96-3.4-.18-.15-.46-.18-.69-.26-.04-.16-.04-.36-.13-.48-1.27-1.65-2.56-3.28-3.84-4.92-.16-.46-.29-.94-.49-1.39-.97-2.3-1.62-4.67-1.75-7.17Z"/>
  <path class="cls-1" d="M668.08,678.47c-4.66.14-9.32.15-13.98,0-.36-.67-.69-1.35-1.08-2-6.4-10.54-13.06-20.94-19.15-31.66-5.34-9.4-11.21-18.47-16.6-27.83.22-.12.42-.3.65-.37,4.58-1.29,8.07-4.04,10.7-7.96.3-.44.65-.76,1.16-.91,3.24.6,6.48,1.18,9.71,1.82,12.51,2.46,25.01,4.96,37.51,7.42,12.42,2.45,24.85,4.88,37.28,7.32-.66,1.48-1.6,2.79-2.55,4.1-7.62-1.49-15.25-2.97-22.87-4.47-9.86-1.94-19.71-3.89-29.57-5.82-10.02-1.97-20.05-3.94-30.07-5.9-.36-.07-.76-.33-1.15.16.42.71.84,1.44,1.27,2.15,12.46,20.51,24.93,41.01,37.39,61.52.48.79.91,1.61,1.36,2.42Z"/>
  <path class="cls-1" d="M768.5,552.8c-.32.11-.68.15-.95.33-1.9,1.3-3.98,2.21-6.15,2.95-.23.08-.43.26-.64.4-1.56.09-3.12.17-4.69.25-1.53-.19-3.06-.37-4.59-.56-.56-.18-1.13-.34-1.68-.55-6.28-2.35-10.41-6.73-12.33-13.15-.36-1.21-.54-2.47-.8-3.71.09-1.53.18-3.05.28-4.58.5-3.22,1.74-6.14,3.69-8.75.25-.33.43-.72.64-1.08.28-.18.62-.31.85-.54,1.55-1.57,3.27-2.9,5.23-3.93.27-.14.44-.5.65-.75.78.01,1.47-.33,2.19-.56,11.29-3.68,23.25,3.4,25.33,15.14,1.15,6.48-.64,12.21-5.16,17.04-.63.67-1.46,1.16-1.86,2.04Z"/>
  <path class="cls-1" d="M629.77,607.75c-.51.15-.87.47-1.16.91-2.63,3.91-6.12,6.66-10.7,7.96-.23.07-.44.24-.65.37-2.1.11-4.17.45-6.3.22-12.79-1.33-21.05-15.79-13.8-28.04.47-.79.95-1.58,1.43-2.37.41-.28.87-.51,1.21-.86,2.01-2.09,4.43-3.52,7.1-4.56.61-.24,1.3-.4,1.55-1.14.59.5,1.27.29,1.93.21,2.01-.26,4.03-.25,6.02.11,1.31.23,2.59.65,3.89.99,1.23.88,2.46,1.75,3.94,2.17.47.48.92.98,1.4,1.44,1.42,1.35,2.64,2.85,3.58,4.56,2.75,5.03,3.08,10.26,1.18,15.65-.27.78-.85,1.48-.61,2.4Z"/>
  <path class="cls-1" d="M748,519.15c-.21.26-.38.61-.65.75-1.96,1.03-3.68,2.36-5.23,3.93-.23.23-.56.36-.85.54-.42-.63-.87-1.24-1.26-1.89-3.83-6.27-7.64-12.56-11.47-18.83-13.4-22.01-26.79-44.02-40.19-66.03.47-.33.93-.69,1.42-.98,1.5-.88,2.94-1.85,4.15-3.11.41-.42.84-.79,1.4-.98,5.02,8.22,10.05,16.43,15.05,24.66,12.25,20.13,24.5,40.27,36.74,60.41.31.5.58,1.03.88,1.54Z"/>
  <path class="cls-1" d="M677.26,693.38c-.27.18-.53.41-.82.55-3.06,1.38-5.81,3.19-8.23,5.52-.23.22-.57.32-.86.48-1.88-3.08-3.75-6.16-5.63-9.24.12-.67.4-1.27.76-1.84,1.82-2.9,3.63-5.81,5.46-8.71.17-.27.45-.48.68-.72.3.4.64.77.9,1.19,2.59,4.25,5.17,8.51,7.75,12.77Z"/>
  <path class="cls-1" d="M772.97,754.24c-4.46-1.85-8.26-4.62-11.13-8.52-4.94-6.72-6.53-14.15-4.46-22.3.48-1.09,1.03-2.16,1.02-3.4.25-.43.53-.85.75-1.3,1.47-2.96,3.41-5.56,5.83-7.81.42-.39.75-.88,1.12-1.33,2.19-.95,4.16-2.27,6.14-3.58,1.62-.48,3.21-1.05,4.85-1.43,4.02-.93,8.05-.83,12.05.18.89.23,1.76.61,2.72.52-.68,2.79-1.89,5.4-2.91,8.06-5.02,13.15-10.08,26.29-15.12,39.43-.21.55-.3,1.15-.87,1.48Z"/>
  <path class="cls-1" d="M654.38,498.8c2.5-.74,5.02-1.37,7.62-1.62,1.47.54,3.01.45,4.54.47.48.16.96.33,1.45.46,8.95,2.44,16.28,12,13.93,23.28-.14.65-.14,1.34-.2,2-1.17,1.15-1.48,2.71-2.05,4.16-1.61,2.24-3.5,4.22-5.55,6.05-1.92.89-3.85,1.77-5.76,2.68-.21.1-.36.32-.54.49-.76.05-1.52.02-2.26.16-2.11.4-4.19.32-6.3,0-2.29-.34-4.38-1.24-6.48-2.11-1.16-1.04-2.42-1.91-3.8-2.62-.38-.45-.74-.9-1.13-1.34-4.78-5.35-6.29-11.54-4.73-18.52.15-.65.25-1.31.37-1.97,1.1-1.55,1.88-3.28,2.72-4.97.86-.77,1.58-1.65,2.23-2.6.36-.2.76-.35,1.06-.62,1.11-1.02,2.38-1.79,3.71-2.5.43-.23.79-.58,1.19-.88Z"/>
  <path class="cls-1" d="M668.08,678.47c-4.66.14-9.32.15-13.99,0-.76.02-1.52.05-2.28.05-44.1.06-88.19-.04-132.28-.53-10.58-.12-21.16-.3-31.73-.44-.92-.01-1.86-.15-2.77.14.28,1.18,1.12,2.06,1.66,3.1.93,1.79,2.16,3.41,2.8,5.35.51.78,1.04,1.54,1.51,2.33,5.58,9.47,11.1,18.99,16.74,28.42,21.83,36.53,44.65,72.44,67.01,108.63.31.5.53,1.07,1.18,1.41.96-.82,1.47-2,2.12-3.05,27.34-43.66,54.67-87.32,82.01-130.99.49-.78.9-1.63,1.67-2.2.12-.67.4-1.27.76-1.84,1.82-2.9,3.63-5.81,5.46-8.71.17-.28.45-.48.68-.72.22-.54.07-.87-.53-.95ZM582.59,748.02c-.96,1.55-2.38,2.36-4.28,2.29-1.33.01-2.44-.51-3.3-1.55-.32-.39-.61-.81-.9-1.23-5.66-8.12-11.32-16.24-16.98-24.37-.34-.48-.7-.96-.98-1.48-.9-1.68-.57-3.56.81-4.86,1.97-1.85,5.26-1.75,7.08.24.4.43.72.94,1.06,1.42,5.57,7.98,11.14,15.95,16.72,23.93.19.28.39.55.58.84,1.04,1.55,1.17,3.17.18,4.77ZM595.77,739.52c-1.77,1.4-4.18,1.27-5.77-.34-.35-.36-.64-.79-.93-1.2-5.63-8.04-11.26-16.08-16.88-24.12-.15-.21-.29-.42-.43-.63-.85-1.32-1.02-2.68-.19-4.06.86-1.43,2.2-2.03,3.81-2.12,1.42.09,2.65.57,3.57,1.67.38.45.71.95,1.05,1.43,5.24,7.48,10.49,14.96,15.73,22.45.34.48.71.96,1,1.47,1.14,1.98.75,4.1-.96,5.46Z"/>
  <path class="cls-1" d="M723.91,655.13c-7.54,13.2-15.07,26.4-22.61,39.6-.21.37-.44.72-.66,1.08-1.53-.4-2.87-1.17-4.14-2.08,7.24-12.69,14.49-25.38,21.72-38.07.46-.8.87-1.64,1.3-2.46,1.46.64,2.92,1.29,4.38,1.93Z"/>
  <path class="cls-1" d="M712.7,720.18c14.05-.06,28.1-.12,42.16-.18,1.18,0,2.37.01,3.55.02,0,1.24-.54,2.31-1.02,3.4-4.06.01-8.12.01-12.19.04-11.09.06-22.17.14-33.26.21.32-1.15.12-2.41.76-3.49Z"/>
  <path class="cls-1" d="M643.48,510.37c-18.53-6.78-37.07-13.56-55.6-20.34-11.64-4.26-23.29-8.51-34.93-12.77-.24-.09-.46-.21-.69-.32.58-1.79,1.44-3.46,2.34-5.11,7.83,2.88,15.65,5.76,23.49,8.63,22.23,8.14,44.47,16.26,66.7,24.39.47.17.94.36,1.42.54-.84,1.69-1.62,3.42-2.72,4.97Z"/>
  <path class="cls-1" d="M675.04,438.97c-.45,2.92-.91,5.84-1.33,8.76-.82,5.6-1.62,11.2-2.43,16.8-.7,4.85-1.4,9.7-2.1,14.55-.88,6.19-1.76,12.37-2.64,18.56-1.53-.01-3.07.07-4.54-.47.96-6.59,1.92-13.19,2.87-19.78.75-5.26,1.47-10.53,2.23-15.79.75-5.26,1.53-10.52,2.31-15.77.41-2.75.84-5.5,1.25-8.26,1.46.46,2.92.93,4.38,1.39Z"/>
  <path class="cls-1" d="M714.28,624.3c.7-.71,1.39-1.43,2.09-2.14,1.8-1.03,3.4-2.4,5.32-3.27.24-.11.34-.53.51-.81.56.39,1.12.15,1.67,0,1.12-.3,2.26-.51,3.42-.64,2.17-.23,4.31.03,6.45.28,1.4.64,2.81,1.21,4.33,1.5.69.48,1.38.97,2.07,1.44,9.93,6.8,11.27,20.84,2.82,29.43-.53.54-1.08,1.07-1.62,1.6-2.08,1.13-4.17,2.25-6.25,3.38-1.23.2-2.46.47-3.7.59-2.51.24-5.01.08-7.46-.54-1.46-.64-2.92-1.29-4.38-1.93-1.02-.76-2.12-1.42-3.03-2.29-5.99-5.65-7.71-12.48-5.49-20.35.21-.73.47-1.44.71-2.16.95-1.3,1.89-2.61,2.55-4.1Z"/>
  <path class="cls-1" d="M733.73,617.73c2.48-8.51,4.97-17.01,7.44-25.52,3.33-11.51,6.64-23.03,9.96-34.55.14-.49.23-.98.35-1.48,1.53.19,3.06.37,4.59.56-1.26,4.47-2.49,8.94-3.77,13.39-4.55,15.8-9.12,31.6-13.69,47.4-.16.57-.36,1.13-.54,1.69-1.52-.28-2.94-.86-4.33-1.49Z"/>
  <path class="cls-1" d="M736.66,538.77c-12.14-2.37-24.29-4.73-36.43-7.12-6.86-1.35-13.71-2.73-20.56-4.1.56-1.44.88-3.01,2.05-4.16,5.14.99,10.29,1.97,15.43,2.97,8.21,1.6,16.41,3.22,24.62,4.84,5.06.99,10.11,1.99,15.17,2.99-.09,1.53-.19,3.05-.28,4.58Z"/>
  <path class="cls-1" d="M652.77,534.82c-8.45,14.48-16.9,28.96-25.35,43.43-1.06,1.82-2.14,3.63-3.21,5.45-1.48-.41-2.72-1.29-3.94-2.17,7.2-12.37,14.39-24.74,21.59-37.11,2.37-4.07,4.74-8.15,7.11-12.23,1.38.71,2.65,1.58,3.8,2.62Z"/>
  <path class="cls-1" d="M735.08,655.08c2.08-1.13,4.17-2.25,6.25-3.38,8.26,14.51,16.53,29.01,24.79,43.52,2.04,3.59,4.08,7.18,6.12,10.77-1.97,1.32-3.95,2.64-6.14,3.58-3.27-5.7-6.54-11.4-9.8-17.11-7.01-12.3-14.01-24.62-21.02-36.93-.08-.15-.14-.31-.21-.46Z"/>
  <path class="cls-1" d="M674.12,533.6c1.27,2.19,2.55,4.37,3.81,6.57,14.4,25.3,28.79,50.61,43.18,75.92.38.66.73,1.33,1.09,2-.17.28-.27.7-.51.81-1.92.86-3.51,2.23-5.32,3.27-3.6-6.3-7.2-12.6-10.79-18.91-12.11-21.27-24.21-42.54-36.32-63.81-.5-.88-.96-1.78-1.44-2.68.18-.17.33-.39.54-.49,1.92-.9,3.84-1.79,5.76-2.68Z"/>
</svg>